<svg width="30" height="32" viewBox="0 0 30 32" fill="none" xmlns="http://www.w3.org/2000/svg">
<path d="M24.465 24.2125L29.085 29.25L27 31.5087L22.32 26.52C21.285 27.2188 20.055 27.625 18.75 27.625C15 27.625 12 24.375 12 20.3125C12 16.25 15 13 18.75 13C22.5 13 25.5 16.25 25.5 20.3125C25.5 21.7425 25.125 23.0912 24.465 24.2125ZM18.75 24.375C20.82 24.375 22.5 22.555 22.5 20.3125C22.5 18.07 20.82 16.25 18.75 16.25C16.68 16.25 15 18.07 15 20.3125C15 22.555 16.68 24.375 18.75 24.375ZM27 0V3.25H0V0H27ZM0 19.5V16.25H9V19.5H0ZM0 11.375V8.125H27V11.375H23.955C22.44 10.3512 20.655 9.75 18.75 9.75C16.845 9.75 15.06 10.3512 13.545 11.375H0Z" fill="#7D7153"/>
</svg>
