<svg width="36" height="30" viewBox="0 0 36 30" fill="none" xmlns="http://www.w3.org/2000/svg">
<path d="M18 11.1265L15.9885 7.32487C15.489 6.3835 14.6228 5.02987 13.3965 3.9355C12.1905 2.85812 10.746 2.125 9 2.125C5.229 2.125 2.25 4.94275 2.25 8.33C2.25 10.9034 3.4965 12.7203 6.453 15.4913C7.21125 16.201 8.07525 16.9681 9.0315 17.8139C11.5245 20.0239 14.625 22.7736 18 26.4499C21.375 22.7736 24.4755 20.0239 26.9685 17.8139C27.9247 16.9681 28.791 16.1989 29.547 15.4913C32.5035 12.7203 33.75 10.9034 33.75 8.33C33.75 4.94275 30.771 2.125 27 2.125C25.2517 2.125 23.8095 2.85812 22.6035 3.9355C21.3772 5.02987 20.511 6.3835 20.0115 7.32487L18 11.1265ZM18.882 28.747C18.7736 28.8682 18.6386 28.9656 18.4863 29.0325C18.3339 29.0993 18.168 29.1339 18 29.1339C17.832 29.1339 17.6661 29.0993 17.5137 29.0325C17.3614 28.9656 17.2264 28.8682 17.118 28.747C13.5157 24.7052 10.2555 21.8153 7.57125 19.4374C2.925 15.317 0 12.7266 0 8.33C0 3.72938 4.0275 0 9 0C12.6 0 15.1177 2.23125 16.659 4.267C17.244 5.04262 17.6895 5.7885 18 6.375C18.3892 5.64097 18.8376 4.93623 19.341 4.267C20.8822 2.22912 23.4 0 27 0C31.9725 0 36 3.72938 36 8.33C36 12.7266 33.075 15.317 28.4288 19.4374C25.7445 21.8174 22.4843 24.7074 18.882 28.7449V28.747Z" fill="#C11212"/>
</svg>
