<svg width="40" height="34" viewBox="0 0 40 34" fill="none" xmlns="http://www.w3.org/2000/svg">
<path d="M38.7833 14.6667L34.95 11.6667L20.575 0.5C20.1917 0.166667 19.6167 0.166667 19.2333 0.5L5.05 11.6667L1.21667 14.6667C0.833335 15 0.833335 15.5 1.21667 15.8333C1.6 16.1667 2.175 16.1667 2.55834 15.8333L4.66667 14.1667V32.8333C4.66667 33.3333 5.24167 33.6667 5.625 33.6667H34.1833C34.7583 33.6667 35.1417 33.3333 35.1417 32.8333V14.1667L37.4417 16C37.6333 16.1667 37.825 16.1667 38.0167 16.1667C38.2083 16.1667 38.5917 16 38.7833 15.8333C39.3583 15.5 39.1667 15 38.7833 14.6667ZM12.525 32C13.2917 29.3333 15.975 27.3333 19.0417 27C22.875 26.6667 26.325 28.8333 27.2833 32H12.525ZM15.2083 21.1667C15.2083 18.8333 17.3167 17 20 17C22.6833 17 24.7917 18.8333 24.7917 21.1667C24.7917 23.5 22.6833 25.3333 20 25.3333C17.3167 25.3333 15.2083 23.5 15.2083 21.1667ZM33.4167 32H29.3917C28.8167 29.3333 26.7083 27 23.8333 26C25.5583 25 26.9 23.1667 26.9 21.1667C26.9 18 23.8333 15.3333 20.1917 15.3333C16.55 15.3333 13.4833 18 13.4833 21.1667C13.4833 23.1667 14.6333 25 16.55 26C13.4833 27 11.375 29.1667 10.6083 32H6.58334V12.6667L20 2.33333L33.4167 12.6667V32Z" fill="#0C4385"/>
</svg>
