<svg width="114" height="32" viewBox="0 0 114 32" fill="none" xmlns="http://www.w3.org/2000/svg">
<path d="M4.61506 19.9773L4.62642 14.1705H5.33097L10.9219 7.54545H16.4787L8.96733 16.3182H7.8196L4.61506 19.9773ZM0.228693 25V1.72727H5.0696V25H0.228693ZM11.1378 25L6.00142 17.3977L9.22869 13.9773L16.8082 25H11.1378ZM26.0213 25.3409C24.2562 25.3409 22.7296 24.9659 21.4418 24.2159C20.1615 23.4583 19.1728 22.4053 18.4759 21.0568C17.7789 19.7008 17.4304 18.1288 17.4304 16.3409C17.4304 14.5379 17.7789 12.9621 18.4759 11.6136C19.1728 10.2576 20.1615 9.20454 21.4418 8.45454C22.7296 7.69697 24.2562 7.31818 26.0213 7.31818C27.7865 7.31818 29.3092 7.69697 30.5895 8.45454C31.8774 9.20454 32.8698 10.2576 33.5668 11.6136C34.2637 12.9621 34.6122 14.5379 34.6122 16.3409C34.6122 18.1288 34.2637 19.7008 33.5668 21.0568C32.8698 22.4053 31.8774 23.4583 30.5895 24.2159C29.3092 24.9659 27.7865 25.3409 26.0213 25.3409ZM26.044 21.5909C26.8471 21.5909 27.5175 21.3636 28.0554 20.9091C28.5933 20.447 28.9986 19.8182 29.2713 19.0227C29.5516 18.2273 29.6918 17.322 29.6918 16.3068C29.6918 15.2917 29.5516 14.3864 29.2713 13.5909C28.9986 12.7955 28.5933 12.1667 28.0554 11.7045C27.5175 11.2424 26.8471 11.0114 26.044 11.0114C25.2334 11.0114 24.5516 11.2424 23.9986 11.7045C23.4531 12.1667 23.0402 12.7955 22.7599 13.5909C22.4872 14.3864 22.3509 15.2917 22.3509 16.3068C22.3509 17.322 22.4872 18.2273 22.7599 19.0227C23.0402 19.8182 23.4531 20.447 23.9986 20.9091C24.5516 21.3636 25.2334 21.5909 26.044 21.5909ZM42.6009 1.72727V25H37.7599V1.72727H42.6009ZM54.3651 25.3409C52.5999 25.3409 51.0734 24.9659 49.7855 24.2159C48.5052 23.4583 47.5166 22.4053 46.8196 21.0568C46.1226 19.7008 45.7741 18.1288 45.7741 16.3409C45.7741 14.5379 46.1226 12.9621 46.8196 11.6136C47.5166 10.2576 48.5052 9.20454 49.7855 8.45454C51.0734 7.69697 52.5999 7.31818 54.3651 7.31818C56.1302 7.31818 57.6529 7.69697 58.9332 8.45454C60.2211 9.20454 61.2135 10.2576 61.9105 11.6136C62.6075 12.9621 62.956 14.5379 62.956 16.3409C62.956 18.1288 62.6075 19.7008 61.9105 21.0568C61.2135 22.4053 60.2211 23.4583 58.9332 24.2159C57.6529 24.9659 56.1302 25.3409 54.3651 25.3409ZM54.3878 21.5909C55.1908 21.5909 55.8613 21.3636 56.3991 20.9091C56.937 20.447 57.3423 19.8182 57.6151 19.0227C57.8954 18.2273 58.0355 17.322 58.0355 16.3068C58.0355 15.2917 57.8954 14.3864 57.6151 13.5909C57.3423 12.7955 56.937 12.1667 56.3991 11.7045C55.8613 11.2424 55.1908 11.0114 54.3878 11.0114C53.5772 11.0114 52.8954 11.2424 52.3423 11.7045C51.7969 12.1667 51.384 12.7955 51.1037 13.5909C50.831 14.3864 50.6946 15.2917 50.6946 16.3068C50.6946 17.322 50.831 18.2273 51.1037 19.0227C51.384 19.8182 51.7969 20.447 52.3423 20.9091C52.8954 21.3636 53.5772 21.5909 54.3878 21.5909ZM75.4901 7.54545V11.1818H64.7173V7.54545H75.4901ZM67.1832 25V6.28409C67.1832 5.01894 67.4295 3.9697 67.9219 3.13636C68.4219 2.30303 69.1037 1.67803 69.9673 1.26136C70.831 0.844695 71.812 0.636362 72.9105 0.636362C73.6529 0.636362 74.331 0.693181 74.9446 0.806818C75.5658 0.920454 76.0279 1.02273 76.331 1.11364L75.4673 4.75C75.2779 4.68939 75.0431 4.63257 74.7628 4.57954C74.4901 4.52651 74.2098 4.5 73.9219 4.5C73.2098 4.5 72.7135 4.66667 72.4332 5C72.1529 5.32576 72.0128 5.78409 72.0128 6.375V25H67.1832ZM82.7997 25.3295C81.6861 25.3295 80.6937 25.1364 79.8224 24.75C78.9512 24.3561 78.2618 23.7765 77.7543 23.0114C77.2543 22.2386 77.0043 21.2765 77.0043 20.125C77.0043 19.1553 77.1823 18.3409 77.5384 17.6818C77.8944 17.0227 78.3793 16.4924 78.9929 16.0909C79.6065 15.6894 80.3035 15.3864 81.0838 15.1818C81.8717 14.9773 82.6974 14.8333 83.5611 14.75C84.5762 14.6439 85.3944 14.5455 86.0156 14.4545C86.6368 14.3561 87.0876 14.2121 87.3679 14.0227C87.6482 13.8333 87.7884 13.553 87.7884 13.1818V13.1136C87.7884 12.3939 87.5611 11.8371 87.1065 11.4432C86.6596 11.0492 86.0232 10.8523 85.1974 10.8523C84.3262 10.8523 83.633 11.0455 83.1179 11.4318C82.6027 11.8106 82.2618 12.2879 82.0952 12.8636L77.6179 12.5C77.8452 11.4394 78.2921 10.5227 78.9588 9.75C79.6255 8.9697 80.4853 8.37121 81.5384 7.95454C82.599 7.5303 83.8262 7.31818 85.2202 7.31818C86.1899 7.31818 87.1179 7.43182 88.0043 7.65909C88.8982 7.88636 89.6899 8.23864 90.3793 8.71591C91.0762 9.19318 91.6255 9.80682 92.027 10.5568C92.4285 11.2992 92.6293 12.1894 92.6293 13.2273V25H88.0384V22.5795H87.902C87.6217 23.125 87.2467 23.6061 86.777 24.0227C86.3073 24.4318 85.7429 24.7538 85.0838 24.9886C84.4247 25.2159 83.6634 25.3295 82.7997 25.3295ZM84.1861 21.9886C84.8982 21.9886 85.527 21.8485 86.0724 21.5682C86.6179 21.2803 87.0459 20.8939 87.3565 20.4091C87.6671 19.9242 87.8224 19.375 87.8224 18.7614V16.9091C87.6709 17.0076 87.4626 17.0985 87.1974 17.1818C86.9399 17.2576 86.6482 17.3295 86.3224 17.3977C85.9967 17.4583 85.6709 17.5152 85.3452 17.5682C85.0194 17.6136 84.724 17.6553 84.4588 17.6932C83.8906 17.7765 83.3944 17.9091 82.9702 18.0909C82.5459 18.2727 82.2164 18.5189 81.9815 18.8295C81.7467 19.1326 81.6293 19.5114 81.6293 19.9659C81.6293 20.625 81.8679 21.1288 82.3452 21.4773C82.83 21.8182 83.4437 21.9886 84.1861 21.9886ZM96.3849 31.5455V7.54545H101.158V10.4773H101.374C101.586 10.0076 101.893 9.5303 102.294 9.04545C102.703 8.55303 103.233 8.14394 103.885 7.81818C104.544 7.48485 105.362 7.31818 106.339 7.31818C107.612 7.31818 108.786 7.65152 109.862 8.31818C110.938 8.97727 111.798 9.97348 112.442 11.3068C113.086 12.6326 113.408 14.2955 113.408 16.2955C113.408 18.2424 113.093 19.8864 112.464 21.2273C111.843 22.5606 110.995 23.572 109.919 24.2614C108.851 24.9432 107.654 25.2841 106.328 25.2841C105.389 25.2841 104.589 25.1288 103.93 24.8182C103.279 24.5076 102.745 24.1174 102.328 23.6477C101.911 23.1705 101.593 22.6894 101.374 22.2045H101.226V31.5455H96.3849ZM101.124 16.2727C101.124 17.3106 101.268 18.2159 101.555 18.9886C101.843 19.7614 102.26 20.3636 102.805 20.7955C103.351 21.2197 104.014 21.4318 104.794 21.4318C105.582 21.4318 106.249 21.2159 106.794 20.7841C107.339 20.3447 107.752 19.7386 108.033 18.9659C108.321 18.1856 108.464 17.2879 108.464 16.2727C108.464 15.2652 108.324 14.3788 108.044 13.6136C107.764 12.8485 107.351 12.25 106.805 11.8182C106.26 11.3864 105.589 11.1705 104.794 11.1705C104.006 11.1705 103.339 11.3788 102.794 11.7955C102.256 12.2121 101.843 12.803 101.555 13.5682C101.268 14.3333 101.124 15.2348 101.124 16.2727Z" fill="#2356A4"/>
</svg>
