<svg width="30" height="33" viewBox="0 0 30 33" fill="none" xmlns="http://www.w3.org/2000/svg">
<path d="M11.8054 29.7114C5.51966 28.2196 0.833328 22.4227 0.833328 15.5C0.833328 7.44561 7.17575 0.916656 15 0.916656C22.8242 0.916656 29.1667 7.44561 29.1667 15.5C29.1667 22.4227 24.4803 28.2196 18.1946 29.7114L15 33L11.8054 29.7114ZM7.93366 24.6248C9.25371 25.7115 10.7944 26.4786 12.4415 26.8692L13.2348 27.0573L15 28.8758L16.7666 27.0573L17.5599 26.8677C19.3146 26.4513 20.9468 25.6082 22.3199 24.4089C21.3974 23.4341 20.2943 22.6597 19.076 22.1314C17.8576 21.6031 16.5487 21.3318 15.2267 21.3333C12.3423 21.3333 9.74416 22.6021 7.93366 24.6248ZM5.956 22.5292C7.14664 21.2284 8.58345 20.1925 10.1779 19.4852C11.7723 18.7779 13.4905 18.4143 15.2267 18.4167C16.9007 18.4144 18.5586 18.7526 20.1053 19.4118C21.652 20.071 23.0569 21.0382 24.2395 22.2579C25.4523 20.5008 26.1685 18.4322 26.3086 16.2815C26.4488 14.1309 26.0074 11.9823 25.0335 10.0742C24.0596 8.16607 22.5912 6.57298 20.7913 5.47168C18.9913 4.37038 16.9302 3.80392 14.8365 3.83515C12.7429 3.86638 10.6985 4.49407 8.93032 5.64859C7.16212 6.80311 5.73919 8.43933 4.81939 10.3757C3.8996 12.3121 3.5189 14.4729 3.71953 16.6185C3.92016 18.764 4.69427 20.8104 5.956 22.5306V22.5292ZM15 16.9583C13.4971 16.9583 12.0558 16.3437 10.9931 15.2498C9.93035 14.1558 9.33333 12.6721 9.33333 11.125C9.33333 9.57789 9.93035 8.09416 10.9931 7.0002C12.0558 5.90624 13.4971 5.29166 15 5.29166C16.5029 5.29166 17.9442 5.90624 19.0069 7.0002C20.0696 8.09416 20.6667 9.57789 20.6667 11.125C20.6667 12.6721 20.0696 14.1558 19.0069 15.2498C17.9442 16.3437 16.5029 16.9583 15 16.9583ZM15 14.0417C15.7514 14.0417 16.4721 13.7344 17.0035 13.1874C17.5348 12.6404 17.8333 11.8985 17.8333 11.125C17.8333 10.3514 17.5348 9.60958 17.0035 9.06259C16.4721 8.51561 15.7514 8.20832 15 8.20832C14.2485 8.20832 13.5279 8.51561 12.9965 9.06259C12.4652 9.60958 12.1667 10.3514 12.1667 11.125C12.1667 11.8985 12.4652 12.6404 12.9965 13.1874C13.5279 13.7344 14.2485 14.0417 15 14.0417Z" fill="#2356A4"/>
</svg>
